# xmcd CD database file
#
# Track frame offsets:
#	182
#	13905
#	30495
#	42752
#	55357
#	74270
#	86225
#	101355
#	116785
#	134855
#	150055
#	164630
#	176490
#	187395
#	201462
#	216345
#
# Disc length: 3131 seconds
#
# Revision: 0
# Processed by: cddbd v1.4b41PL3 Copyright (c) Steve Scherf et al.
# Submitted via: Feurio! 1.61 - http://www.feurio.com
#
DISCID=f10c3910
DTITLE=Kenny Rogers and The First Edition - The Collection
DYEAR=1900
DGENRE=
TTITLE0=Ruby, Don't Take Your Love To Town
TTITLE1=Tulsa Turnaround
TTITLE2=Elvira
TTITLE3=Reuben James
TTITLE4=The King Of Oak Street
TTITLE5=Me And Bobby Mcgee
TTITLE6=Just Dropped In (To See What Condition My Conditions Is In)
TTITLE7=For The Good Times
TTITLE8=Something's Burning
TTITLE9=Tell It All Brother
TTITLE10=Sunshine
TTITLE11=A Poem For My Little Lady
TTITLE12=She Even Woke Me Up To Say Goodbye
TTITLE13=But You Know I Love You
TTITLE14=Heed The Call
TTITLE15=I Believe In Music
EXTD=AAD-MCA Records -1992
EXTT0=
EXTT1=
EXTT2=
EXTT3=
EXTT4=
EXTT5=
EXTT6=
EXTT7=
EXTT8=
EXTT9=
EXTT10=
EXTT11=
EXTT12=
EXTT13=
EXTT14=
EXTT15=
PLAYORDER=
